<?xml version="1.0" standalone="no"?>
<!DOCTYPE svg PUBLIC "-//W3C//DTD SVG 20010904//EN"
 "http://www.w3.org/TR/2001/REC-SVG-20010904/DTD/svg10.dtd">
<svg version="1.0" xmlns="http://www.w3.org/2000/svg"
 width="1125.000000pt" height="1125.000000pt" viewBox="0 0 1125.000000 1125.000000"
 preserveAspectRatio="xMidYMid meet">
<metadata>
Created by potrace 1.14, written by Peter Selinger 2001-2017
</metadata>
<g transform="translate(0.000000,1125.000000) scale(0.100000,-0.100000)"
fill="#000000" stroke="none">
<path d="M470 10123 c-60 -10 -153 -47 -207 -82 -111 -73 -193 -177 -235 -299
l-23 -67 0 -4045 0 -4045 23 -67 c59 -170 199 -308 367 -361 l70 -22 5160 0
5160 0 70 22 c171 54 314 197 368 368 l22 70 0 4035 0 4035 -22 70 c-53 169
-192 310 -362 368 l-66 22 -5150 1 c-2832 1 -5161 -1 -5175 -3z m9655 -4493
l0 -3375 -4500 0 -4500 0 -3 3365 c-1 1851 0 3371 3 3378 3 10 909 12 4502 10
l4498 -3 0 -3375z"/>
<path d="M3700 7856 c0 -2 -344 -1002 -765 -2222 -421 -1221 -765 -2222 -765
-2226 0 -5 168 -8 373 -8 l373 0 219 625 220 625 695 0 696 0 204 -582 c112
-321 212 -602 222 -625 l17 -43 371 0 c203 0 370 4 370 8 0 6 -1314 3824
-1492 4335 l-41 117 -348 0 c-192 0 -349 -2 -349 -4z m578 -1863 c116 -339
211 -618 209 -620 -2 -2 -202 -2 -444 -1 l-440 3 226 617 c124 340 228 618
231 618 3 0 101 -278 218 -617z"/>
<path d="M6220 7545 l0 -315 505 0 505 0 2 -1912 3 -1913 350 0 350 0 3 1913
2 1912 515 0 515 0 -2 313 -3 312 -1372 3 -1373 2 0 -315z"/>
</g>
</svg>
